HIERARCHY
ROOT joint_Root
{
	OFFSET 0.0 0.0 0.0
	CHANNELS 6 Xposition Yposition Zposition Zrotation Xrotation Yrotation 
	JOINT Hips
	{
		OFFSET 4.5925 91.4895 -427.239
		CHANNELS 6 Xposition Yposition Zposition Zrotation Xrotation Yrotation 
		JOINT Spine
		{
			OFFSET 15.7357 0.0 0.0
			CHANNELS 6 Xposition Yposition Zposition Zrotation Xrotation Yrotation 
			JOINT Chest
			{
				OFFSET 8.98455 -0.406207 0.0
				CHANNELS 6 Xposition Yposition Zposition Zrotation Xrotation Yrotation 
				JOINT Neck
				{
					OFFSET 16.3773 0.0 0.0
					CHANNELS 6 Xposition Yposition Zposition Zrotation Xrotation Yrotation 
					JOINT Head
					{
						OFFSET 6.45672 0.0 0.0
						CHANNELS 6 Xposition Yposition Zposition Zrotation Xrotation Yrotation 
						End Site
						{
							OFFSET 0.0 0.0 0.0
						}
					}
				}
				JOINT Shoulder_L
				{
					OFFSET 12.9942 -0.242716 4.98039
					CHANNELS 6 Xposition Yposition Zposition Zrotation Xrotation Yrotation 
					JOINT UpperArm_L
					{
						OFFSET 5.34809 0.0 0.0
						CHANNELS 6 Xposition Yposition Zposition Zrotation Xrotation Yrotation 
						JOINT LowerArm_L
						{
							OFFSET 24.3286 1.87007e-05 0.0
							CHANNELS 6 Xposition Yposition Zposition Zrotation Xrotation Yrotation 
							JOINT Hand_L
							{
								OFFSET 22.2916 0.0 0.0
								CHANNELS 6 Xposition Yposition Zposition Zrotation Xrotation Yrotation 
								End Site
								{
									OFFSET 0.0 0.0 0.0
								}
							}
						}
					}
				}
				JOINT Shoulder_R
				{
					OFFSET 12.9945 -0.242716 -4.98039
					CHANNELS 6 Xposition Yposition Zposition Zrotation Xrotation Yrotation 
					JOINT UpperArm_R
					{
						OFFSET -5.34813 0.0 0.0
						CHANNELS 6 Xposition Yposition Zposition Zrotation Xrotation Yrotation 
						JOINT LowerArm_R
						{
							OFFSET -24.3289 0.000322201 0.0
							CHANNELS 6 Xposition Yposition Zposition Zrotation Xrotation Yrotation 
							JOINT Hand_R
							{
								OFFSET -22.2915 -0.000108084 0.0
								CHANNELS 6 Xposition Yposition Zposition Zrotation Xrotation Yrotation 
								End Site
								{
									OFFSET 0.0 0.0 0.0
								}
							}
						}
					}
				}
			}
		}
		JOINT UpperLeg_L
		{
			OFFSET -2.19248 -6.46944 0.0
			CHANNELS 6 Xposition Yposition Zposition Zrotation Xrotation Yrotation 
			JOINT LowerLeg_L
			{
				OFFSET 39.0811 0.0 -1.23785e-05
				CHANNELS 6 Xposition Yposition Zposition Zrotation Xrotation Yrotation 
				JOINT Foot_L
				{
					OFFSET 40.9854 0.0 -1.26872e-05
					CHANNELS 6 Xposition Yposition Zposition Zrotation Xrotation Yrotation 
					JOINT Toes_L
					{
						OFFSET 11.7543 0.0 0.0
						CHANNELS 6 Xposition Yposition Zposition Zrotation Xrotation Yrotation 
						End Site
						{
							OFFSET 0.0 0.0 0.0
						}
					}
				}
			}
		}
		JOINT UpperLeg_R
		{
			OFFSET -2.19251 6.46944 0.0
			CHANNELS 6 Xposition Yposition Zposition Zrotation Xrotation Yrotation 
			JOINT LowerLeg_R
			{
				OFFSET -39.0811 -0.00228153 -0.0401928
				CHANNELS 6 Xposition Yposition Zposition Zrotation Xrotation Yrotation 
				JOINT Foot_R
				{
					OFFSET -40.9854 0.0 0.0
					CHANNELS 6 Xposition Yposition Zposition Zrotation Xrotation Yrotation 
					JOINT Toes_R
					{
						OFFSET -11.7543 0.0 0.0
						CHANNELS 6 Xposition Yposition Zposition Zrotation Xrotation Yrotation 
						End Site
						{
							OFFSET 0.0 0.0 0.0
						}
					}
				}
			}
		}
	}
}
MOTION
Frames:	4
Frame Time:	0.0333333
0.000000 0.000000 0.000000 0.000000 0.000000 -0.000000 -0.806118 81.979400 -0.852778 88.685800 -14.027100 14.731400 15.735700 0.000005 -0.000001 73.537600 78.974000 -71.998500 8.984550 -0.406207 -0.000000 13.522500 -6.105090 3.805540 16.377300 -0.000001 -0.000001 -3.298130 6.063650 1.081560 6.456720 -0.000001 -0.000000 -6.585860 16.349000 -5.975920 12.994200 -0.242716 4.980390 -90.718000 2.538180 -74.198400 5.348090 -0.000007 -0.000001 -69.228400 26.798200 -2.751510 24.328600 0.000019 0.000005 6.425080 11.096800 -30.331200 22.291600 -0.000001 0.000005 13.602000 5.214370 2.356730 12.994500 -0.242716 -4.980390 86.155500 13.613600 -74.065600 -5.348130 -0.000001 -0.000004 -60.974800 3.585070 0.162801 -24.328900 0.000322 -0.000009 -6.609100 -17.877200 -20.676400 -22.291500 -0.000108 -0.000004 15.689200 5.108040 4.932880 -2.192480 -6.469440 -0.000000 -171.413000 -14.973700 -9.738630 39.081100 -0.000007 -0.000012 -0.613608 0.318632 62.559600 40.985400 -0.000006 -0.000013 -2.653150 -0.777599 -86.782600 11.754300 -0.000000 0.000003 -0.000300 -0.002605 -16.674600 -2.192510 6.469440 -0.000001 179.082000 2.971860 167.280000 -39.081100 -0.002282 -0.040193 0.036435 -0.016998 62.925500 -40.985400 0.000008 0.000006 7.846470 5.870140 -85.780400 -11.754300 -0.000006 -0.000006 -0.001122 -0.017129 -17.269700
0.000000 0.000000 0.000000 0.000000 0.000000 -0.000000 -1.631160 83.967800 -0.552935 88.223300 -9.325240 13.562000 15.735700 0.000005 -0.000001 73.275300 80.332400 -72.464700 8.984550 -0.406207 -0.000000 10.827500 -5.502420 2.143240 16.377300 -0.000001 -0.000001 -2.231070 4.343640 0.925707 6.456720 -0.000001 -0.000000 -5.063490 12.693400 -4.732830 12.994200 -0.242716 4.980390 -90.867700 2.931030 -73.502200 5.348090 -0.000007 -0.000001 -68.168500 26.823000 -4.455420 24.328600 0.000019 0.000005 5.572050 10.093200 -29.103400 22.291600 -0.000001 0.000005 12.819300 5.218010 2.263290 12.994500 -0.242716 -4.980390 86.433800 12.261700 -73.645400 -5.348130 -0.000001 -0.000004 -60.177100 -1.416930 -1.337960 -24.328900 0.000322 -0.000009 -4.882470 -16.864200 -16.402100 -22.291500 -0.000108 -0.000004 11.859900 5.044280 6.370750 -2.192480 -6.469440 -0.000000 -171.187000 -12.718800 -8.797470 39.081100 -0.000007 -0.000012 -0.492987 0.319549 57.050300 40.985400 -0.000006 -0.000013 -1.926450 1.527500 -83.599000 11.754300 -0.000000 0.000003 -0.000219 -0.001998 -16.652700 -2.192510 6.469440 -0.000001 179.394000 6.577170 169.897000 -39.081100 -0.002282 -0.040193 0.052382 -0.031898 57.024900 -40.985400 0.000008 0.000006 7.564820 4.967030 -83.230600 -11.754300 -0.000006 -0.000006 -0.001485 -0.022066 -17.470400
0.000000 0.000000 0.000000 0.000000 0.000000 -0.000000 -2.098820 86.395000 -0.400214 88.522900 -5.456250 11.046300 15.735700 0.000005 -0.000001 72.003400 82.360600 -72.334400 8.984550 -0.406207 -0.000000 6.769150 -4.702340 -0.383294 16.377300 -0.000001 -0.000001 0.481058 2.685570 1.062970 6.456720 -0.000001 -0.000000 -2.993450 9.118690 -2.515800 12.994200 -0.242716 4.980390 -90.901400 2.847140 -72.423000 5.348090 -0.000007 -0.000001 -68.114600 25.975100 -5.041460 24.328600 0.000019 0.000005 6.040360 11.557300 -27.842400 22.291600 -0.000001 0.000005 10.803100 5.234460 1.838250 12.994500 -0.242716 -4.980390 86.920600 10.094200 -72.935800 -5.348130 -0.000001 -0.000004 -56.768500 -7.662960 -7.155690 -24.328900 0.000322 -0.000009 -4.023710 -15.101300 -15.105800 -22.291500 -0.000108 -0.000004 9.925350 4.932850 8.715050 -2.192480 -6.469440 -0.000000 -171.990000 -11.914400 -8.238710 39.081100 -0.000007 -0.000012 -0.356575 0.306200 49.347200 40.985400 -0.000006 -0.000013 -1.190580 3.815110 -79.298600 11.754300 -0.000000 0.000003 -0.000148 -0.001434 -16.632100 -2.192510 6.469440 -0.000001 179.137000 9.406120 171.460000 -39.081100 -0.002282 -0.040193 0.052139 -0.041773 49.488300 -40.985400 0.000008 0.000006 7.127330 4.832530 -79.429500 -11.754300 -0.000006 -0.000006 -0.002390 -0.033500 -17.935400
0.000000 0.000000 0.000000 0.000000 0.000000 -0.000000 -2.233470 88.511000 -0.325604 89.029500 -2.650290 8.705520 15.735700 0.000005 -0.000001 70.266000 84.172100 -71.682200 8.984550 -0.406207 -0.000000 3.165320 -3.874550 -2.723020 16.377300 -0.000001 -0.000001 3.850140 1.528550 1.341070 6.456720 -0.000001 -0.000000 -0.956020 6.335550 -0.732348 12.994200 -0.242716 4.980390 -90.803900 2.352030 -71.123300 5.348090 -0.000007 -0.000001 -69.210600 23.454200 -4.967140 24.328600 0.000019 0.000005 6.140660 12.588000 -26.273200 22.291600 -0.000001 0.000005 9.772250 5.226900 2.036650 12.994500 -0.242716 -4.980390 87.566600 7.799610 -72.612400 -5.348130 -0.000001 -0.000004 -51.714000 -16.605900 -17.136700 -24.328900 0.000322 -0.000009 -5.982000 -19.462300 -17.452100 -22.291500 -0.000108 -0.000004 12.214500 4.982060 7.711410 -2.192480 -6.469440 -0.000000 -173.004000 -12.032200 -7.236520 39.081100 -0.000007 -0.000012 -0.226563 0.256127 41.495700 40.985400 -0.000006 -0.000013 -0.646185 5.840510 -75.026000 11.754300 -0.000000 0.000003 -0.000068 -0.000740 -16.606200 -2.192510 6.469440 -0.000001 178.791000 11.350200 172.886000 -39.081100 -0.002282 -0.040193 0.045064 -0.046158 42.157600 -40.985400 0.000008 0.000006 6.653060 4.908620 -75.458400 -11.754300 -0.000006 -0.000006 -0.003283 -0.043760 -18.352800
